<svg xmlns="http://www.w3.org/2000/svg" viewBox="0 0 1115.14 549.34"><defs><style>.cls-1,.cls-2{fill:#fff;}.cls-1{stroke:#fff;stroke-width:0.25px;}.cls-1,.cls-3{stroke-miterlimit:10;}.cls-3{fill:#e50012;stroke:#e50012;stroke-width:4px;}.cls-4{fill:#231815;}</style></defs><title>アセット 1</title><g id="レイヤー_2" data-name="レイヤー 2"><g id="レイヤー_1-2" data-name="レイヤー 1"><path class="cls-1" d="M310.82,422.72c-1.66,1.68-3.18,3.17-4.67,4.56a58.09,58.09,0,0,1-4.47,3.73,56.13,56.13,0,0,1-13.37,7.82,133,133,0,0,1-14.25,4.85c-4.73,1.31-9.22,2.59-13.5,3.81a40.5,40.5,0,0,0-11.06,5,18.72,18.72,0,0,0-7.31,7.47c-5.15,10.16-13.8,21.47-26,33.82-14.15,14.16-25.86,22-35.12,23.55q-7.8,1.32-12.33-3.36c-1.73-1.42-2.2-3.79-1.47-7,1.6-7,9.22-16.8,22.87-29.47q17.75-16.17,25.94-20.43c2.29-1.07,4.77-3.73,7.47-8q4-6.63,9.73-16.5t12.83-23q14.49-26.52,18.67-35.76c.37-.91.66-1.63.88-2.22a11.53,11.53,0,0,0,.43-1.39c.08-.32-.16-.37-.68-.1l-2,2.4c-4.2,6.05-8.78,12.21-13.81,18.48s-10.49,12.75-16.36,19.47Q211.64,434.81,196,446.77q-17.53,13-32.14,15.47-8.52,1.44-12.8-2.24-4.54-4.63-2.35-14.35c.21-.88.45-1.86.79-3s.7-2.16,1.1-3.28q3.83-9.69,30.28-58.95,27.27-50.93,28.23-53.12a34.67,34.67,0,0,0,2.75-8q3.33-14.52-6-14.77a20.29,20.29,0,0,0-2.34,0c-.76.05-1.57.16-2.37.29q-17.3,2.92-36.2,37.66-6.94,12.8-9,22-1.72,7.51.61,9.73a3.12,3.12,0,0,1,1.08,3.42c-.85,3.78-3.7,6.07-8.59,6.87a9.13,9.13,0,0,1-5.24-.66c-2.8-1.44-4.82-4.43-6.11-9.07-1.6-5.41-1.57-11.73.07-18.91A74.68,74.68,0,0,1,147.46,333q27.47-45.78,64-49.85,31.33-3.19,23.41,31.76c-.33,1.42-.71,3-1.15,4.59s-.93,3.17-1.42,4.64q-11.42,32.76-50.18,100.07a34.14,34.14,0,0,0-3.84,8.69c-.64,2.86-.06,4.4,1.77,4.59,4.68.58,11.31-2.7,19.78-9.79q20.4-16.64,59.87-71.69,37.89-53.21,53.5-84.84c2-3.94,4.91-6.26,8.8-6.93a27.28,27.28,0,0,1,3.15-.27c1.23,0,2.64,0,4.16.08,6.35.3,9.06,2.46,8.16,6.38a23.53,23.53,0,0,1-1.92,5.25Q331.44,285,302.1,345.8q-15.87,32.68-25.7,52.7t-13.59,27.42c-1.49,3-2.19,4.77-2.16,5.25-.08,1.07.62,1.47,2.07,1.23,1.12-.19,4.14-1,8.94-2.29,2-.51,4-1,6.06-1.39s4.13-.83,6.24-1.2c3.09-.51,7.44-2.8,13-6.86a94.46,94.46,0,0,0,8.87-7.06,58.79,58.79,0,0,0,7.4-7.84c1.07-1.21,1.68-1,1.76.48a23.66,23.66,0,0,1-1.13,10.29C312.83,419.62,311.83,421.71,310.82,422.72Z"/><path class="cls-1" d="M458.3,397.86a71.35,71.35,0,0,1-27,17.74,64.74,64.74,0,0,1-10.64,2.56c-13.31,2.26-21.5,1.14-24.48-3.34-.86-1.25-.85-3.68,0-7.28q3.18-14,17.35-38.11c1.24-2.11,1.32-3.07.2-2.88-.51.11-1.2.75-2.08,1.92a248,248,0,0,1-32,36.7q-26.59,25.44-45.12,28.54c-6.83,1.17-12.67.13-17.53-3.21q-9.3-6.48-4.7-26.66,8.34-36.61,52-87.67a302.92,302.92,0,0,1,63-55.66q31.73-21.12,51.21-24.4c4-.7,7,.77,8.8,4.45,1.46,3.2,2.09,5.23,1.89,6.13-.53,2.32-4.13,4.4-10.77,6.24q-38.25,10.57-94.78,72.89c-4,4.49-8,9.39-12.17,14.73S363.26,351.77,359,358.2q-16,24.17-19,37.37c-1.89,8.27.05,13,5.87,14.27a9.92,9.92,0,0,0,5.12.15q20-3.36,64.89-64,8.4-11.2,20.4-29.44t28.35-43.71c3.68-6,9.14-8.94,16.32-9,4.84-.1,6.83,1.87,5.9,6a20.78,20.78,0,0,1-2.76,5.92c-2.28,3.84-5.56,9.41-9.78,16.67s-9.39,16.32-15.44,27.15q-11.88,21.43-19.9,36.48c-5.3,10-9.45,18.09-12.37,24.09-3,6.4-4.94,11.36-5.75,14.93s-.31,5.84,1.52,6.75c1,.53,3.59.69,7.84.51,3.64-.3,8.44-2.48,14.36-6.59a69.64,69.64,0,0,0,16.27-14.88c1.07-1.23,1.63-1.07,1.76.45a23.39,23.39,0,0,1-1.16,10.32C460.37,394.77,459.34,396.82,458.3,397.86Z"/><path class="cls-1" d="M717.59,354.12q-12.76,13-27,17.76-15.52,5.49-28.66,3.55Q642,372.6,646.2,354.28a75.33,75.33,0,0,1,4.21-12.35C652,338,657.88,327.37,667.84,310s24.12-41.72,42.47-73A35.91,35.91,0,0,0,715,226.74c1-4.29-.32-6.16-3.92-5.54-5.17.88-11.23,4.82-18.13,11.84q-31.34,30.68-68.6,85.34-11.94,17.56-21.87,32.91t-17.84,29.39c-2.8,4.81-5.7,7.95-8.7,9.5s-7.23,2.61-12.67,3.17c-7.06.86-10.2-.34-9.47-3.57a14.54,14.54,0,0,1,1.87-4.19q8.88-15.48,18-30.72t18-30.73q16.56-28.39,26.75-47.1c6.8-12.45,11.63-21.63,14.37-27.63a34.6,34.6,0,0,0,2.1-6c1.42-6.27-.15-9-4.68-8.27q-8.78,1.49-27.14,21.39-18.6,20.25-56.81,81c-6.33,10-12.63,20.08-18.8,30.08s-12.44,20.06-18.76,30.09c-4.11,4.13-9.44,6.75-16.09,7.87-7.78,1.33-11.32.37-10.58-2.86a4.74,4.74,0,0,1,.54-1.39q23.79-41.81,39.75-72.3c10.67-20.35,18.78-37.1,24.46-50.3a104.67,104.67,0,0,0,6.54-18.45c2.07-9.13.18-13.93-5.65-14.33a22.47,22.47,0,0,0-2.57,0c-1,.11-1.84.21-2.67.35q-15.79,2.67-28.56,24.75a85.23,85.23,0,0,0-9.09,22.48c-1.79,7.89-1.87,13.63-.15,17.1a5.51,5.51,0,0,1,.52,3.78c-1.11,4.86-5.12,7.87-12.11,9-3.41.59-5.68-.05-6.81-1.94q-4.89-7.44-1.62-21.74c1.59-7,4.78-15.82,9.52-26.43Q502,255.43,518.39,241,535,226.57,553,223.54c.83-.16,1.63-.29,2.46-.42a14,14,0,0,1,2.61-.22q23.77-1.35,17.31,26.89a135.89,135.89,0,0,1-8.15,23.36c-1.2,2.43-2.32,4.88-3.4,7.28s-2.26,5-3.5,7.6a29.68,29.68,0,0,0-1.83,5c-.69,3,.52,2.59,3.6-1.38C566,286.3,570,281,574,275.63s8-10.59,12-15.73q21.51-27.69,36.27-40c7.71-6.48,15.15-10.35,22.3-11.55,6-1,10.56.08,13.78,3.26s4.07,7.81,2.68,13.89a29.68,29.68,0,0,1-2.52,6.91q-13.17,27-25.7,48.06a11.17,11.17,0,0,0-1.75,3.65c-.12.53,0,.78.27.72.67-.11,2.12-1.36,4.39-3.84,4.29-5,8.48-10,12.56-15s8.31-10,12.56-15.07q22.17-26.24,32-35.66,19.45-18.56,36.23-21.36,19.2-3.24,14.22,18.8a78.52,78.52,0,0,1-4.39,13.18q-5.39,12.28-61.52,109.74c-5,8.59-7.12,14.41-6.55,17.4,1.47,5.94,8.13,8,19.94,6,3.1-.53,7.47-2.83,13-6.88a99.29,99.29,0,0,0,8.87-7.07,58.18,58.18,0,0,0,7.4-7.84c1.07-1.2,1.63-1,1.76.48A23.64,23.64,0,0,1,720.65,348C719.66,351.05,718.63,353.11,717.59,354.12Z"/><path class="cls-1" d="M865.13,329.26a62.83,62.83,0,0,1-37.63,20.33q-20,3.36-24.48-3.36c-.83-1.26-.8-3.66,0-7.26q3.19-14,17.33-38.11c1.26-2.11,1.34-3.07.21-2.88-.5.08-1.22.72-2.07,1.89a246,246,0,0,1-32,36.7Q759.84,362,741.36,365.14c-6.86,1.14-12.67.1-17.53-3.23-6.2-4.32-7.77-13.18-4.7-26.65q8.34-36.6,52-87.69a304.64,304.64,0,0,1,63-55.66q31.77-21.12,51.21-24.4c4-.69,7,.8,8.83,4.45,1.46,3.2,2.08,5.26,1.89,6.16-.53,2.32-4.14,4.38-10.8,6.22Q847,194.9,790.51,257.23c-4,4.48-8,9.38-12.16,14.72s-8.27,11.26-12.54,17.65q-16,24.16-19,37.37c-1.89,8.27.05,13,5.87,14.27a10.31,10.31,0,0,0,5.12.19q19.95-3.4,64.89-64,8.4-11.24,20.4-29.44t28.32-43.74c3.71-6,9.15-8.93,16.35-9,4.86-.11,6.83,1.87,5.89,6a20.12,20.12,0,0,1-2.79,5.95c-2.24,3.84-5.52,9.39-9.74,16.64s-9.39,16.33-15.44,27.18q-11.92,21.41-19.9,36.49c-5.3,10-9.44,18.08-12.37,24.05-3,6.43-4.94,11.39-5.74,15s-.32,5.85,1.5,6.73c1,.53,3.57.69,7.86.5,3.63-.29,8.43-2.48,14.35-6.59a69.37,69.37,0,0,0,16.27-14.88c1-1.2,1.63-1,1.76.48a23.67,23.67,0,0,1-1.17,10.3C867.19,326.17,866.17,328.25,865.13,329.26Z"/><path class="cls-2" d="M116.8,263.64c-3.63,1.7-14.86-.64-10.75-22.72,4-22.62,15.47-34.86,21.44-33.34a5.88,5.88,0,0,1,4.43,3.92c1.39.5,3,1.84,3,3.33-.3,2.46-7.1,24.38-6.51,30.25.77,8.61,4.32,5.12,6.61.4a97.27,97.27,0,0,0,5.12-11.18c.43-1.54,3.55.11,2.88,2.51a76.44,76.44,0,0,1-2.55,7.52c-4.56,11.2-13.13,14.88-15.74,4.32C122.75,255.61,120.08,262,116.8,263.64Zm-4.19-27.36c-3.54,14.24-2.21,21.2.29,22.43,3.5,1.6,6.33-8.09,11.23-22.17a110.53,110.53,0,0,1,4.56-21c-.4-3.31-2.42-3.31-3.89-2.67C122.05,213.82,116.13,222.27,112.61,236.28Z"/><path class="cls-2" d="M159.47,231.37c-.51-1-1.65-1.5-2.91,2.08-7.52,21.28-19,9.6-16.8-4.16,2.94-20.08,8-30.57,8.59-31.58,1.17-2.61,6.13.77,5,3.89-.88,2.48-7.36,16.59-8.45,30.78-.78,11.2,5.28,6.83,7.76.45,5.47-14.74,15.25-43.57,15.89-45.18.83-1.89,5.61-.26,5.12,2-.45,1.89-9.09,25.92-11,36.29-.53,3.55,2.56,7.87,7.87,2.06,2-2.08,6.06-8.94,7.66-12.86.48-1.54,3.52.22,2.74,2.67-2.18,7-5.79,15.76-13.36,18.85C163.9,238,161.63,235.66,159.47,231.37Z"/><path class="cls-2" d="M178,218.46c-.13-15.52,9-38,12.13-47.47l3.66-9.61c-9.39,4.86-17.37,9-21.21,10.57-5.22,2.08-5.25-4.06-2.85-5.74.8-.56,13.66-7.06,27.31-14.16,4.91-13.68,10-27.79,11-29.5,1.55-2.72,5.71.91,4.51,4.06-.24,1-3.17,9.06-7.66,21.44,12.94-6.72,24.76-12.8,25.64-13.18,3.76-1.76,6,3.36,4.37,4.08-7,3.84-20.45,11.37-33.47,18.33-6.11,16.05-12.56,30.93-17.87,58.59-1.12,6.32,3.15,9.39,7.5,3.2a96.24,96.24,0,0,0,7.33-13c.56-1.54,3.52.32,2.69,2.72a60.45,60.45,0,0,1-3.14,7.26c-2.62,5-8.73,13.84-14.7,12.43C180.41,227.79,178.08,224.75,178,218.46Z"/><path class="cls-2" d="M231.21,173.87a39.72,39.72,0,0,1-.82,7c5.2-2.08,11.22-7.14,13-12,.58-1.86,4.61-3.41,4.45-1-.34,2.14-5.44,13.39-15.81,17.68a18.94,18.94,0,0,1-2.94.88c-3.18,11.34-9,23.82-14.54,29.58-7.44,7.47-19.62,3.1-14.83-16.27,5-19.39,11.37-29.28,16.86-33.6,3.23-2.61,5.49-2.13,6.56-1.73C227.24,162.58,231.61,164.64,231.21,173.87Zm-26.29,29.81c-3.23,16.89,8.21,10.22,15.52-9,1.25-3.2,2.11-6.08,2.8-8.5-3.52-1.34-5.15-5.13-6.08-7.74a9.83,9.83,0,0,1-.45-3.87C211.69,180.85,207,192.64,204.92,203.68Zm21-29.49c.83-4.62-3.36-5.87-4.26-.64-.78,4.74.61,7.17,2.85,7.84C225.21,178.62,225.61,176.32,225.93,174.19Z"/><path class="cls-2" d="M277.78,170.77c.86-2.77.8-5.17-.45-3.52S263.51,193.42,262.1,196c-2.27,4-8.59-.11-7.63-4.83.67-2.85,5.36-16.85,6.77-20.35s1.5-5.14-.18-3.28-16.3,27.79-19.42,35.42c-1.73,4.48-7.44,1.58-6.66-2.77,1.06-5.82,9.83-38.11,11.09-41.21s7.76-3.44,6.24,1.68c-.8,3.28-3.95,15.47-5.6,19.76-1.17,3.26-.59,3.87.13,2.59s12.38-22.64,21-33.39c1.73-2.24,6.69,1,6.29,4.11s-4.74,13.33-6.61,18.4-1.23,5.9-.43,4.35,16.8-28.67,21.55-34.28c2.11-2.55,6.8,1.82,5.65,4.17s-4.18,8.93-9.12,21.81c-5,13-4.1,16.91,2.62,14.38,4.66-1.71,11.46-12.83,14.08-17.66.8-1.52,3.49.61,2.64,2.86-3.68,8-10.43,22.93-21.26,20.91C274.82,187.09,276.71,173.44,277.78,170.77Z"/><path class="cls-2" d="M337.6,136.31a39.21,39.21,0,0,1-1.49,6.86c5.41-1.57,11.87-6.06,14-10.78.78-1.78,5-3,4.54-.58-.51,2.08-6.61,12.85-17.33,16.13a14.09,14.09,0,0,1-3,.64c-4.16,11-11.07,22.89-17.12,28.11-8.09,6.78-19.82,1.28-13.31-17.54s13.92-28.09,19.76-31.9c3.44-2.35,5.68-1.68,6.69-1.12C334.67,124.74,338.8,127.14,337.6,136.31Zm-28.86,27.31C304,180.11,316,174.51,325,156.1c1.54-3.06,2.64-5.84,3.57-8.24-3.41-1.62-4.7-5.52-5.39-8.24a9.81,9.81,0,0,1-.11-3.89C317.52,141.49,311.79,152.8,308.74,163.62Zm23.58-27.46c1.2-4.54-2.85-6.14-4.21-1-1.18,4.67,0,7.23,2.1,8.09A64.23,64.23,0,0,0,332.32,136.16Z"/><path class="cls-2" d="M341.84,155.2c2.05-15.37,14.32-36.35,18.83-45.24l5-9c-10,3.55-18.45,6.43-22.48,7.5-5.47,1.3-4.62-4.78-2-6.08.85-.46,14.53-5.1,29-10.14,6.83-12.85,13.9-26.13,15.1-27.68,1.92-2.51,5.52,1.73,3.89,4.64-.37,1-4.45,8.53-10.64,20.14,13.73-4.83,26.32-9.15,27.23-9.42,4-1.23,5.44,4.16,3.76,4.69-7.52,2.78-21.9,8.33-35.76,13.37-8.35,15-16.89,28.93-26.12,55.5-2,6.08,1.79,9.71,7,4.21a92.86,92.86,0,0,0,9.15-11.84c.74-1.41,3.41.85,2.26,3.09a60.11,60.11,0,0,1-4.16,6.73c-3.31,4.58-10.64,12.45-16.32,10.24C342.88,164.83,341,161.44,341.84,155.2Z"/><path class="cls-2" d="M377.71,114c1.63-2.51,5.52.13,4.78,1.54-1.28,2.56-6.72,13.82-10.56,23.74-4.78,11.89-3.81,18.83,1.89,16,2-1.07,12.27-10.64,16.16-16.86.93-1.43,3.44.94,2.38,3.1-3.87,6.88-15.37,23.23-23.77,18.83-1.73-.91-3-2.4-4-5.2C360.24,143.2,376.91,115.19,377.71,114Zm13.2-13.29c.22,2.51-1.57,5.58-4.15,5.28a4.32,4.32,0,0,1-3.44-4c-.43-2.59,1.65-5.74,4.29-5.31C389.53,97,390.52,98.76,390.91,100.68Z"/><path class="cls-2" d="M417.77,112.58c-.27-3.66,1.2-7.74,3.55-12.22,3.66-6.66,8.93-4.61,7.68,1.6-.35,2-2.19,5.82-4.64,10.62.62,6.45,5.33,8.19,10.59,7.36a48.44,48.44,0,0,1,2.53-6.35A94.22,94.22,0,0,1,451.3,92.73c4.58-5.54,9.44-6.56,12-4.69,7.7,5.71-6.86,24.19-12,28.67a31.06,31.06,0,0,1-12.64,7.55c-3.39,14.88,13.63,11.68,24.93-4.64,1-1.44,3.39,1,2.11,3.17-13.5,22.78-35.37,22.46-32.09,2.4a15.44,15.44,0,0,1-13.06-6c-6,10.45-13.76,22.35-18.27,27.52-6.54,7.55-15.79,2.88-13-10.61,2.67-13.87,14.09-30.41,14.46-31,1.49-1.9,7.73.64,5.41,3.89a153.15,153.15,0,0,0-10.16,18.27c-6.69,14.32-6.35,20.32-.37,15.12,6.19-5.6,16.69-23.9,18.46-28Zm31.34.64c3.23-3,15.2-18.67,11.5-20.27-1.1-.4-4,1.33-8.65,7.07a88.17,88.17,0,0,0-10.64,17,4.12,4.12,0,0,0-.77,1.57A28,28,0,0,0,449.11,113.22Z"/><path class="cls-2" d="M567.66,98.87c4.08-9.63,5.76-12.24,6.29-13.82.72-1.62-1.84.49-5,4.14-7.65,9.57-15.12,18.43-24.5,31.28-1.18,1.68-5.85-1.89-3.41-6.93C559.34,78.15,586.52,39.29,610.6,4.48c2-2.64,4.4,3.07,3.71,4.88-18,25.37-37.72,53.34-57.51,85.8-3,5-1.57,4.08,1.23.46,5.13-6.3,18.73-22.17,26.22-26.83,3.52-2.3,6.86,3.14,4.74,6-2.39,3.25-12.23,16.32-17.46,28.8-4,10,3.81,6.35,6.58,4.56,1.23-.53,9.9-7,13.77-12.05,1.09-1.18,3.3,1.44,1.86,3.52-4.34,6-11.49,13.84-18.61,15.82C567.07,117.75,564.17,107.08,567.66,98.87Z"/><path class="cls-2" d="M632,73.75a38.62,38.62,0,0,1-2.64,6.5c5.57-.61,12.7-3.92,15.69-8.16,1-1.6,5.35-2.08,4.53.22-.86,1.92-8.73,11.46-19.84,12.85a16.87,16.87,0,0,1-3,.11C620.68,95.38,611.83,105.86,605,110c-9.12,5.28-19.71-2.18-10-19.63s18.61-25.23,25-27.95c3.81-1.7,5.89-.63,6.8.06C631.19,61.82,634.87,65,632,73.75ZM598.89,95.62c-7.52,15.41,5.25,12,17.31-4.59,2-2.77,3.63-5.28,5-7.47-3.07-2.24-3.65-6.27-3.89-9.07a10.62,10.62,0,0,1,.61-3.86C611.42,75.29,603.8,85.54,598.89,95.62Zm28-22.94c2-4.27-1.73-6.56-4-1.79-2,4.43-1.25,7.12.69,8.38C625,76.73,626,74.6,626.89,72.68Z"/><path class="cls-2" d="M633.25,93.05c4.66-14.77,20.29-33.31,26.23-41.28l6.43-8.05c-10.4,1.76-19.25,3.17-23.41,3.52-5.61.34-3.74-5.5-.94-6.35.94-.27,15.18-2.51,30.36-5,8.9-11.46,18.1-23.31,19.57-24.64,2.32-2.08,5.15,2.67,3,5.23-.53.91-5.84,7.65-13.95,18,14.4-2.4,27.53-4.48,28.48-4.59,4.14-.53,4.64,5,2.89,5.23-7.87,1.47-23,4.45-37.5,7-10.78,13.36-21.55,25.58-35.18,50.14-3,5.65.08,9.89,6.16,5.36a96.75,96.75,0,0,0,11-10.08c1-1.28,3.22,1.41,1.7,3.44a55.1,55.1,0,0,1-5.25,5.89c-4,4-12.59,10.43-17.82,7.29C632.66,102.68,631.4,99.06,633.25,93.05Z"/><path class="cls-2" d="M697.28,66.6A45.91,45.91,0,0,1,694.4,73c5.6-.4,12.82-3.47,16-7.58,1.11-1.6,5.44-1.86,4.56.32-1,2-9.18,11.18-20.33,12.17a20.94,20.94,0,0,1-3.07,0c-6.37,9.87-15.62,20-22.61,23.89-9.31,4.94-19.6-2.88-9.31-20,10.46-17.06,19.5-24.59,26-27,3.84-1.55,5.89-.45,6.77.27C696.82,54.62,700.37,57.88,697.28,66.6ZM663.35,87.24c-8.08,15.15,4.8,12.16,17.47-4C683,80.6,684.61,78.12,686,76c-3-2.35-3.42-6.4-3.53-9.18a10.65,10.65,0,0,1,.7-3.87C676.58,67.4,668.61,77.32,663.35,87.24Zm28.81-21.92c2.13-4.19-1.5-6.62-3.92-1.92-2.11,4.35-1.52,7.09.4,8.37A70.16,70.16,0,0,0,692.16,65.32Z"/><path class="cls-2" d="M750,85.11c3.62-8.06,11.73-18,14.64-20.57s4.8-6.34,2.58-5.73c-1.89.59-4.74.91-6.75-.13a177.06,177.06,0,0,1-21.41,25.68c-3,3.28-3.92-1.28-2.83-2.34,7.79-7.26,17.12-18.91,22-26-1.14-3.36,1.66-7.94,4-10,4-3.63,7.36,0,5.52,4.35-1.31,3,.29,2.93,4.75,2,4.61-.72,7.7,6.48,3.7,9.66-4.16,3.14-13.33,14.29-19.34,22.64-4.18,5.92-1.22,6.93,2.35,5,3.76-1.81,9.44-6.4,14.64-11.1,1.07-1.22,3.15,1.66,1.5,3.53-4.11,4.66-12.27,10.8-18.08,12.9C751.76,97,746.72,92.68,750,85.11Z"/><path class="cls-2" d="M778.76,92.49c-4-.23-12.81-7.6,1.28-25.12,14.21-18,30.13-23.36,34.69-19.17a5.92,5.92,0,0,1,2.06,5.52c1,1.12,1.78,3.06,1,4.4-1.41,2-17.76,18.08-20.06,23.52-3.39,8,1.39,6.51,5.68,3.52a115.65,115.65,0,0,0,9.79-7.41c1.09-1.2,3.07,1.7,1.34,3.54a77,77,0,0,1-5.82,5.39c-9.31,7.71-18.62,6.91-15.92-3.63C787.79,88.2,782.44,92.58,778.76,92.49ZM788,66.39c-9.87,10.88-12,17.6-10.35,19.89,2.32,3.07,9.39-4.11,20.4-14.16a111,111,0,0,1,14-16.35c1.2-3.15-.56-4.05-2.18-4.21C806.94,51.13,797.74,55.72,788,66.39Z"/><path class="cls-2" d="M877.09,80.15c6.48-8.22,8.8-10.27,9.76-11.63s-2,0-5.92,2.67C871,78.39,861.43,85,849,94.87c-1.6,1.33-5.12-3.36-1.47-7.6C874.58,58,911.09,27.66,943.58.4c2.64-2,3.44,4.16,2.32,5.68-24.14,19.71-50.59,41.53-78.3,67.67-4.27,4-2.62,3.52,1,.72,6.65-4.73,24-16.46,32.47-19,4-1.23,5.75,4.91,3,7.12C900.9,65.05,887.92,75,879.57,85.69c-6.56,8.54,2,7.15,5.15,6.14,1.3-.16,11.39-4,16.45-8,1.39-.86,2.83,2.29.88,3.92-5.79,4.67-14.77,10.32-22.19,10.37C871.49,98.23,871.52,87.14,877.09,80.15Z"/><path class="cls-2" d="M910,73.61a100.22,100.22,0,0,1,21.34-13c14.53-6.88,20.61,5.5,2.53,16.16C923,83.29,909,87,904.27,88c-2.83,8.59,11.92,10.8,27,2,1.31-.93,2.64,2.33.57,3.76C906.58,111.35,883.68,95.56,910,73.61Zm24.62-2.21c7.65-5.07,8.32-10.91-5.76-4A100.19,100.19,0,0,0,912,78.33a45.1,45.1,0,0,0-4.4,4.16C917.36,81.05,930.08,74.52,934.59,71.4Z"/><path class="cls-2" d="M940.8,98.6c6.11-6.4,17.16-13,20.78-14.51s6.67-4.32,4.38-4.48c-2-.1-4.81-.77-6.3-2.42a182.61,182.61,0,0,1-28.91,17c-4,2-3.25-2.51-1.89-3.14,9.81-4.25,22.56-12.09,29.6-17.13.08-3.6,4.27-7,7.12-8.13,5-2.08,7,2.43,3.74,5.92-2.22,2.4-.7,2.83,3.81,3.52,4.58.88,5.06,8.72.21,10.35s-17.44,9-25.87,14.83c-6,4.18-3.52,6.13.51,5.44,4.16-.43,11.07-2.83,17.57-5.5,1.42-.77,2.4,2.62.19,3.82-5.41,3-15.23,6-21.41,6C938.43,110.36,935.15,104.58,940.8,98.6Z"/><path class="cls-3" d="M748.16,407.31l1.14.67a153.34,153.34,0,0,1-20.24,24.64q-11.59,11.56-19.39,13.6-10.08,2.65-13.06-8.74-4.12-15.69,11.59-33.55t25.15-20.3a8.13,8.13,0,0,1,5.87.45,6.05,6.05,0,0,1,3.34,4.06,10.87,10.87,0,0,1-1.42,8.26c-1.62,2.94-3.44,4.64-5.44,5.18a4.45,4.45,0,0,1-3.49-.61,4.38,4.38,0,0,1-2.19-2.62,5.41,5.41,0,0,1,.78-4.4,5.81,5.81,0,0,1,3.57-2.82,3.37,3.37,0,0,1,3.55.87c.87,1,1.52,1.42,1.86,1.34.7-.19,1.15-.88,1.39-2.06a6.13,6.13,0,0,0,.08-2.93,4.5,4.5,0,0,0-2.78-3.15,6.11,6.11,0,0,0-4.13-.45q-7.76,2-21.09,26.86T701.38,441.9a4.22,4.22,0,0,0,2.82,3,8.6,8.6,0,0,0,4.91.08c5.42-1.41,11.9-6,19.42-13.68A169.54,169.54,0,0,0,748.16,407.31Z"/><path class="cls-3" d="M749.3,408l-1.14-.67,9.73-13.49q7.88-11,19.23-24.3T788.7,356L815,310q7.71-13.56,15.49-24.86a159.55,159.55,0,0,1,15.95-19.92c5.44-5.73,9.76-9.57,13-11.66a31.13,31.13,0,0,1,7.83-3.84q7.92-2.07,9.87,5.45,2.64,10-15,34t-48.78,49.53c-8.75,7.17-13.58,11.63-14.51,13.33L789,371.12Q778.94,390.44,769.07,412l1.28.11a268.94,268.94,0,0,1,23.79-32.73c8.69-10.21,15.6-16,20.69-17.36,5.47-1.44,8.91.61,10.38,6.16a22.36,22.36,0,0,1,.1,10.64c-.85,3.68-3.54,8.75-8,15.2l-6.14,8.78c-4.45,6.35-6.4,10.61-5.81,12.85s2.16,2.91,4.75,2.22q11.67-3,33.52-35.53l1,.7-7.89,11.17a119.22,119.22,0,0,1-13.66,16.14c-5,5-9.22,7.92-12.5,8.77a6.67,6.67,0,0,1-6.09-1.22,11.31,11.31,0,0,1-3.78-6.3,14.39,14.39,0,0,1,.72-9.36c1.31-3.15,4.56-8.43,9.76-15.9s8.32-12.26,9.39-14.48,1.36-4,1-5.52a4,4,0,0,0-2.46-2.75,5.85,5.85,0,0,0-3.86-.26c-1.84.48-4.67,2.24-8.49,5.22s-8.9,8.41-15.28,16a220.63,220.63,0,0,0-18.05,25.39c-5.71,9.28-10.19,16.32-13.5,21.07l-12.69,3.33L785.71,363l-.8-.48Q774.91,372.29,749.3,408ZM874.92,255.35c-1-3.63-3.28-5-7-4q-7.92,2.08-17.74,13.39T821.55,309.7c-12.56,22.51-18.69,34.19-18.45,35.15,0,.16,5.12-3.89,15.15-12.16,5.94-5,11.79-10.27,17.62-15.95a246.29,246.29,0,0,0,21.85-24.27,117.4,117.4,0,0,0,13.23-21c2.48-5.09,3.84-9.17,4.16-12.29A10.45,10.45,0,0,0,874.92,255.35Z"/><path class="cls-3" d="M903.27,339.54l11.5-3-26.43,47.53c-2.62,4.61-3.66,8-3.07,10.24a3.93,3.93,0,0,0,2.35,2.9,5.42,5.42,0,0,0,3.33.3c2.08-.56,5-2.94,8.8-7.17s10.75-13.69,20.91-28.2l1.12.67q-16.2,23.08-21.87,29.1c-3.79,4-6.85,6.27-9.2,6.88a6,6,0,0,1-5.44-1,9,9,0,0,1-3.15-4.91c-.93-3.62-.37-8.66,1.74-15l-.62-.24q-20.68,28.51-30.24,31a7.37,7.37,0,0,1-7.15-1.65,15.4,15.4,0,0,1-4.54-8q-3.87-14.76,13.58-33t31.63-21.95c4.94-1.3,7.92.13,9,4.3a31.89,31.89,0,0,1,.77,3.68Zm-9.49,9c-.8-3.09-3.2-4.13-7.15-3.09q-10.77,2.85-26.62,26.94t-13.87,31.79a4.64,4.64,0,0,0,2.24,2.77,5.4,5.4,0,0,0,4.38.46c2.51-.67,6.24-3.36,11.12-8s10.61-11.73,17.1-21.07,10.42-15.95,11.84-19.76S894.52,351.36,893.78,348.5Z"/><path class="cls-3" d="M920.66,362.13q23.88-33.56,34.91-36.43a6.61,6.61,0,0,1,4.94.54,6.18,6.18,0,0,1,3.09,4.13c1.49,5.73-.43,13.47-5.74,23.12l.67.38Q982,319.18,993.68,316.1c5.87-1.52,9.44.16,10.75,5.12a19.37,19.37,0,0,1-.83,11.34c-1.43,4.16-4.64,9.78-9.52,16.8s-7.89,11.6-9,13.65-1.44,3.77-1.12,5a3.26,3.26,0,0,0,1.86,2.13,4.63,4.63,0,0,0,3.1.3c2.66-.69,6.45-3.2,11.33-7.44s10.06-10.35,15.47-18.16l6.59-9.34,1.12.67q-21.36,32.2-34.59,35.68a6.58,6.58,0,0,1-5.52-1,8.39,8.39,0,0,1-3.53-5.1,15.53,15.53,0,0,1-.13-7.07,26.41,26.41,0,0,1,2.14-6.69,109.83,109.83,0,0,1,7.33-11.36l4.64-6.62q7.88-11.28,7-14.64c-.64-2.34-2.67-3-6.14-2.13-6.34,1.68-14.08,8.56-23.12,20.56S952.29,365.12,941,383.58l-12.88,3.36,26.46-45c4.13-7.1,6-11.52,5.55-13.26-.51-1.92-2-2.56-4.38-1.92q-10.25,2.68-34,36.06Z"/><path class="cls-2" d="M851.51,511.21c22.19-26.73,46.92-64.77,57.72-96.2l10.14,57.12,44.32,37.41C931.08,503.11,885.76,505.42,851.51,511.21Z"/><path class="cls-2" d="M706.45,100.34c1.44-2.22,2.75-4.14,3.9-5.87l.74-.88C699,101.91,695.76,92.42,697,88c3.34-11.73,19-30.51,30.83-36,6.67-2.94,11.74.26,11.74,4.72,2,1.17,3.86,4.48.13,8.34a273.93,273.93,0,0,0-24.56,31.15c9.49-4.32,15.15-8,23.41-16,1-1.07,3.15,1.55,1.52,3.49C731.52,93.85,722,98,710.64,102.82c-10,15.06-18.32,28.51-30.86,39.79-16.85,15.25-26.85-2.93-14.35-16.35S692.58,106.47,706.45,100.34ZM727.12,58c-8,5.23-21.07,19.34-24.3,27.95-2.69,7.28.62,8.38,6.89,3.79,4.4-3.28,9.46-8.8,13.76-13.68,4.8-7,8.43-12,10.93-15.31C735.71,56.57,733.28,54.12,727.12,58Zm-58.54,71.61c-8.51,11.18-1.87,18.75,8.35,8.94,10.35-10.14,18.8-22.14,25.31-32C683.76,115.19,674.71,121.46,668.58,129.62Z"/><path class="cls-2" d="M709.92,103.94c-4.88.45-9.75.85-14.63,1.36-.65.36-16.37,9.17-28.86,21.89A17.18,17.18,0,0,0,661.19,139a9,9,0,0,0,1.59,5q8.07-.76,16.11-1.45C687.84,136.8,699.73,124.89,709.92,103.94Zm-41.34,25.68c6.13-8.16,15.18-14.43,33.66-23-6.51,9.84-15,21.84-25.31,32C666.71,148.37,660.07,140.79,668.58,129.62Z"/><polyline class="cls-4" points="706.46 100.33 705.9 99.09 706.46 100.33"/><line class="cls-4" x1="709.3" y1="93.59" x2="709.25" y2="93.65"/><polyline class="cls-4" points="740.26 55.58 739.58 56.76 740.94 56.76"/><path class="cls-2" d="M488.48,140.66c-6,10.79-11.62,21.72-15.67,30.85l-.11,2.92h0c1.92-.41,3.81-.91,5.73-1.31,3.5-7.3,9.95-20.59,17.62-34.09C493.55,139.62,491,140.07,488.48,140.66Z"/><path class="cls-2" d="M117.26,292.82c41.37-21.83,88.07-40.56,136.82-57.69,68.44-23.71,140-43.32,215.14-59.59-.17-.57-.6-1.07-.63-1.63v-3c3.83-8.64,9-18.68,14.58-28.8a1890.5,1890.5,0,0,0-237,71.31c-49.1,18.79-95.85,38.7-138.18,63.18C65.88,300.16,28.49,333,10.8,373.49c-9,19.95-12.65,41.72-9.91,61.73C3.22,455.37,12.18,473,23.05,486.9c22.75,27.57,51.61,40.55,74.68,48.4a293.11,293.11,0,0,0,55.73,12.16l19.93,1.88,2.22-1.8-1.79-2.27L154,542.68a286.2,286.2,0,0,1-54-13.79c-22.13-8.34-49.27-22.06-69.12-48C10.75,455.31,5.11,415,23.44,379.32,40.84,343.22,75.62,314.23,117.26,292.82Z"/><path class="cls-2" d="M689.51,105.84c-42.35,4.59-84.74,11.28-126.7,19-21.21,4-40.85,8.71-61.84,13.43-7.35,13.26-14.13,26.44-17.8,34.06,28.65-6,56.13-11.53,85.12-16.24,30.38-4.84,59.64-8.65,90.13-11.67a12.94,12.94,0,0,1-1-5c-.37-4.8,1.66-10.54,6.22-15.49C672.57,114.29,680.15,109.92,689.51,105.84Z"/><path class="cls-2" d="M534,79.11c8.59-6.27,15.79.69,12.75,9.62-8,23.23-22,35.21-29.87,37-5.29,1.31-8.59-3.23-9.13-7-15.09,24.51-29.07,53.21-30.77,58-1.31,3.39-5.68-1.6-4-5.63,14.51-32.75,48.52-84.86,53.24-91.75,4.27-6,5.49-2.08,5.74-.74C532.24,80.44,535.12,78.39,534,79.11ZM516,120.58c10.13.08,24-25.74,25.36-34.83,1.39-8.3-6-6.91-21.07,13.65-2.32,3.26-4.72,6.88-7.25,10.7C511.44,115.24,511,120.47,516,120.58Z"/><path class="cls-2" d="M847.38,52.68c9.76-4.32,15.31,4,10.4,12.08C845,85.69,828.65,94.34,820.63,94.42c-5.44.16-7.71-5-7.44-8.75-20,20.72-39.85,45.66-42.54,50-2,3.07-5.2-2.77-2.69-6.34,21.22-28.81,65.66-72.36,71.76-78.07,5.47-4.9,5.82-.8,5.76.51C845.43,53.58,848.69,52.2,847.38,52.68ZM821,89.19c9.89,2.27,29-19.92,32.3-28.51,3.12-7.74-4.43-8-23.53,8.77-3,2.72-6.1,5.74-9.39,8.88C817.61,83,816,88,821,89.19Z"/><path class="cls-2" d="M767.54,130.16c-1.5,1.9,1.79,7.14,2.57,6,2.09-3.11,15-19.78,30-36.56-2.42,0-4.86.14-7.28.16C783,110.79,774.26,121.65,767.54,130.16Z"/><path class="cls-2" d="M763.33,133.32s-1-3.06.41-4.87c7-8.89,14.32-18.4,23.72-28.74-25,.37-48.45,1.65-73.6,3.87-9.22,13.94-14.31,26.75-28.9,38.44,28.35-2.25,54.84-3.34,82.61-3.44A5.44,5.44,0,0,1,763.33,133.32Z"/><path class="cls-2" d="M1100,209.09c-14.12-23.15-34.84-40.53-57-53.63-21.73-13-47.45-24.06-70.34-32-25.89-9.08-51.91-14.42-78.86-18.33-29.61-3.82-57.59-6.22-87.85-6.29-15.66,17.36-29.4,34.91-31.47,38.27l-4.64,1.61c40.43-.13,80.06,2,117.89,7.6a493.65,493.65,0,0,1,70.43,16.92c24.58,8.27,44.19,16.69,63.73,27.77,18.82,11,35.2,23.82,45.31,38.76,10.59,14.75,13.1,31.7,10.82,48.78-6,34.92-29.93,65.17-50.39,89.91-21.51,24.74-43.16,44.34-61.43,59.87-22.58,18.85-39.74,32.14-49.71,39.66l1.39,7.82,5.86,5,7.63-4.39c11.36-6.66,28-16.65,48-31.06s44.14-32.54,69.36-57a281.78,281.78,0,0,0,36.8-43.1c11.4-16.78,22.31-36.32,27.48-60.27C1117.92,261.24,1114.8,232,1100,209.09Z"/></g></g></svg>